# xmcd CD database file
#
# Track frame offsets:
#	183
#	12658
#	24245
#	38058
#	56583
#	70683
#	84408
#	96783
#	112870
#	130345
#	142118
#	154770
#	168368
#	185095
#	195568
#	211170
#
# Disc length: 2978 seconds
#
# Revision: 0
# Processed by: cddbd v1.5.2PL0 Copyright (c) Steve Scherf et al.
# Submitted via: CDex 1.70beta2
#
DISCID=d40ba010
DTITLE=Ken Mullan - The best of Ken Mullan
DYEAR=2001
DGENRE=Country
TTITLE0=The way old friends do
TTITLE1=I'll take you home again kathleen
TTITLE2=Waltz across Texas
TTITLE3=The silver haired daddy of mine
TTITLE4=Dixie road
TTITLE5=Forever and ever
TTITLE6=Silver thread among gold
TTITLE7=Maggie
TTITLE8=An old love
TTITLE9=Galway bay
TTITLE10=Love song of the waterfall
TTITLE11=If I had my life to live over
TTITLE12=Can't hold the years back
TTITLE13=Rosie marie
TTITLE14=Daisy a day
TTITLE15=When I grow to old to dream
EXTD=YEAR: 2001
EXTT0=
EXTT1=
EXTT2=
EXTT3=
EXTT4=
EXTT5=
EXTT6=
EXTT7=
EXTT8=
EXTT9=
EXTT10=
EXTT11=
EXTT12=
EXTT13=
EXTT14=
EXTT15=
PLAYORDER=
